<svg xmlns="http://www.w3.org/2000/svg" xmlns:xlink="http://www.w3.org/1999/xlink" width="594.839" height="491.549" viewBox="0 0 594.839 491.549">
  <defs>
    <linearGradient id="linear-gradient" x1="0.5" y1="1" x2="0.5" gradientUnits="objectBoundingBox">
      <stop offset="0" stop-color="gray" stop-opacity="0.251"/>
      <stop offset="0.535" stop-color="gray" stop-opacity="0.122"/>
      <stop offset="1" stop-color="gray" stop-opacity="0.102"/>
    </linearGradient>
    <linearGradient id="linear-gradient-3" x1="0.5" y1="1" x2="0.5" y2="0" xlink:href="#linear-gradient"/>
  </defs>
  <g id="Group_4" data-name="Group 4" transform="translate(3.574 0)">
    <path id="Path_1" data-name="Path 1" d="M166.936,642.525c0,29.72,17.669,40.1,39.462,40.1.507,0,1.012-.005,1.514-.019,1.009-.022,2.01-.066,3-.137,19.671-1.391,34.953-12.3,34.953-39.942,0-28.6-36.544-64.693-39.3-67.372l-.005,0c-.1-.1-.159-.156-.159-.156S166.936,612.8,166.936,642.525Z" transform="translate(334.147 -247.103)" fill="#2dce89"/>
    <path id="Path_2" data-name="Path 2" d="M217.9,678.076l-14.435-20.167,14.471,22.381.038,2.315c1.009-.022,2.01-.066,3-.137l-1.555-29.734.011-.23-.027-.044-.145-2.809,14.507-22.438-14.55,20.332-.036.6L218,625.674l12.419-23.184-12.57,19.238-1.223-46.574-.005-.159v.156l.2,36.728-12.361-14.561,12.414,17.723.326,20.115-11.544-19.3,11.593,22.265.181,11.182-16.758-26.871L217.494,653.2Z" transform="translate(324.085 -247.103)" fill="#f2f2f2"/>
    <g id="Group_1" data-name="Group 1" transform="translate(34.323 179.948)" opacity="0.7">
      <path id="Path_3" data-name="Path 3" d="M938.617,356.96V349.8h35.789v33.1a6.979,6.979,0,0,1-6.979,6.979H945.6a6.979,6.979,0,0,1-6.979-6.979V375.57a9.3,9.3,0,1,1,0-18.61Zm0,15.031V360.539a5.726,5.726,0,0,0,0,11.452Z" transform="translate(-929.312 -349.802)" fill="url(#linear-gradient)"/>
    </g>
    <path id="Path_4" data-name="Path 4" d="M977.6,362.4a8.5,8.5,0,1,1-8.5,8.5,8.5,8.5,0,0,1,8.5-8.5Zm0,13.724a5.228,5.228,0,1,0-5.228-5.228,5.228,5.228,0,0,0,5.228,5.228Z" transform="translate(-932.819 -174.176)" fill="#6c63ff"/>
    <path id="Path_5" data-name="Path 5" d="M977.6,362.4a8.5,8.5,0,1,1-8.5,8.5,8.5,8.5,0,0,1,8.5-8.5Zm0,13.724a5.228,5.228,0,1,0-5.228-5.228,5.228,5.228,0,0,0,5.228,5.228Z" transform="translate(-932.819 -174.176)" opacity="0.1"/>
    <path id="Path_6" data-name="Path 6" d="M815.169,276.563H782.493v30.192a6.405,6.405,0,0,0,6.406,6.405h19.866a6.405,6.405,0,0,0,6.405-6.405Z" transform="translate(-737.713 -94.872)" fill="#fb6340"/>
    <path id="Path_7" data-name="Path 7" d="M966.651,352.455v30.226a6.372,6.372,0,0,0,6.372,6.372h-3.268a6.372,6.372,0,0,1-6.372-6.372V352.455Z" transform="translate(-915.989 -170.764)" opacity="0.1"/>
    <path id="Path_8" data-name="Path 8" d="M965.883,314.936a1.908,1.908,0,0,1,1.443.733c.429.777-.348,1.653-1.057,2.187a14.06,14.06,0,0,0-3.58,3.332,4.178,4.178,0,0,0-.2,4.618c1.271,1.723,4.3,2.094,4.595,4.214.188,1.361-.988,2.523-2.181,3.206-2.943,1.686-6.738,2.136-8.87,4.774a6.876,6.876,0,0,0-4.821-3.31c-1.966-.448-4.009-.414-6-.718a2.076,2.076,0,0,1-1.656-.879c-.557-1.131,1.031-2.487.483-3.623-.417-.864-1.643-.8-2.538-1.143a3.306,3.306,0,0,1-1.645-3.946,7.43,7.43,0,0,1,2.811-3.65,31.481,31.481,0,0,1,11.32-5.233A29.014,29.014,0,0,1,960,314.106,30.074,30.074,0,0,1,965.883,314.936Z" transform="translate(-894.876 -157.607)" fill="#eee"/>
    <line id="Line_1" data-name="Line 1" x2="68.324" y2="212.856" transform="translate(300.204 226.005)" fill="none" stroke="#e0e0e0" stroke-miterlimit="10" stroke-width="8"/>
    <g id="Group_2" data-name="Group 2" transform="translate(238.429 0)" opacity="0.7">
      <path id="Path_9" data-name="Path 9" d="M349.995,538.726c8.4.487,15.892,7.528,15.892,7.528l3.62-8.981.3.1c-1.769-7.742-37.753-167.341-1.731-181.1,27.68-10.572,57.04-23.656,80.043-23.164V295.4H415.865v-1.344H390.334c-4.894-3.5,2.217-5.9,10.165-7.4a7.277,7.277,0,0,1-.852-1.2l-40.891-73.364s-9.406-15.453-3.359-22.843,14.781,18.812,14.781,18.812l33.593,48.374s33.9-35.338,55.473-52.912a37.75,37.75,0,0,1,8.029-6.068c3.937-2.664,6.917-4.044,8.387-3.5.015.006.027.015.042.021a37.636,37.636,0,0,1,10.036-1.364h2.687v-5.513A43.1,43.1,0,0,1,461.8,161.867a48.415,48.415,0,0,1-3.837-42.156,2.8,2.8,0,0,1-1.132-.392c-1.217-.783-1.337-2.5-1.22-3.939a29.929,29.929,0,0,1,15.19-23.4c3.4-1.861,7.3-3.144,9.813-6.1,2.157-2.542,3.063-6.1,5.673-8.171,3.1-2.464,7.58-2.04,11.385-.941a41.427,41.427,0,0,1,11.883,5.608c4.116,2.819,7.83,6.44,12.568,8,3.367,1.109,7.018,1.087,10.406,2.128a17.478,17.478,0,0,1,11.245,10.967,22.832,22.832,0,0,1,.962,8.572,48.1,48.1,0,0,1,4.826,10.979c.253.137.508.271.76.412l-.737-.331a48.364,48.364,0,0,1-13.627,49.331A43.065,43.065,0,0,1,515.3,187.095v6.669a50.8,50.8,0,0,1,16.49,6.753l.007-.009s.429.265,1.163.759l.22.149c4.972,3.374,21.631,15.7,21.068,29.026q.033.768-.009,1.541a51.235,51.235,0,0,1,1.372,11.749v96.685a47.483,47.483,0,0,1-10.19,29.449c14.02,3.142,22.956,7.9,22.956,13.214a4.3,4.3,0,0,0,0,1.344c0,9.462-28.276,17.133-63.155,17.133-4.217,0-8.337-.113-12.322-.327l-39.411,31.9,63.155,101.451s20.828,16.124,4.7,21.5-49.046,9.406-49.046,9.406-5.375-9.406,2.016-13.437,17.468-2.016,17.468-2.016l-1.344-8.062s-109.514-94.061-86.67-126.31c4.37-6.17,8.741-12.536,13.148-18.8l-17.24,1.571-3.923,147.657-.491-.16c.985,2.9,7.95,24.794-7.489,21.089-16.528-3.966-46.6-17.956-46.6-17.956S341.59,538.239,349.995,538.726Zm65.87-254.073,32.249-9.363V247.7l-35.051,37.208C414.786,284.736,415.865,284.653,415.865,284.653Z" transform="translate(-341.177 -75.892)" fill="url(#linear-gradient)"/>
    </g>
    <circle id="Ellipse_1" data-name="Ellipse 1" cx="47.301" cy="47.301" r="47.301" transform="translate(352.069 17.749)"/>
    <path id="Path_10" data-name="Path 10" d="M568.335,312.406l-36.1,38.32a7.053,7.053,0,0,1-11.294-1.4l-39.984-71.736,11.168-3.942,32.848,47.3s61.667-64.275,70.295-61.1S568.335,312.406,568.335,312.406Z" transform="translate(-222.792 -138.957)" fill="#11cdef"/>
    <line id="Line_2" data-name="Line 2" x2="53.214" y2="137.962" transform="translate(414.465 306.155)" fill="none" stroke="#bdbdbd" stroke-miterlimit="10" stroke-width="5"/>
    <line id="Line_3" data-name="Line 3" x1="53.214" y2="137.962" transform="translate(335.011 306.155)" fill="none" stroke="#bdbdbd" stroke-miterlimit="10" stroke-width="5"/>
    <ellipse id="Ellipse_2" data-name="Ellipse 2" cx="61.754" cy="16.753" rx="61.754" ry="16.753" transform="translate(339.583 290.388)" fill="#b84733"/>
    <ellipse id="Ellipse_3" data-name="Ellipse 3" cx="61.754" cy="16.753" rx="61.754" ry="16.753" transform="translate(339.583 289.074)" fill="#f55f44"/>
    <line id="Line_4" data-name="Line 4" x1="58.266" y2="17.955" transform="translate(369.065 336.466)" fill="none" stroke="#bdbdbd" stroke-miterlimit="10" stroke-width="5"/>
    <line id="Line_5" data-name="Line 5" x2="58.266" y2="17.955" transform="translate(375.357 336.466)" fill="none" stroke="#bdbdbd" stroke-miterlimit="10" stroke-width="5"/>
    <path id="Path_11" data-name="Path 11" d="M269.332,182.016H251a36.79,36.79,0,0,0-36.79,36.79v97.23H319.323V232.008a49.991,49.991,0,0,0-49.992-49.991Z" transform="translate(131.29 -62.438)" fill="#11cdef"/>
    <path id="Path_12" data-name="Path 12" d="M319.323,386.016H214.209v57.156h58.47a46.644,46.644,0,0,0,46.644-46.644V386.016Z" transform="translate(131.29 -132.418)" fill="#172b4d"/>
    <path id="Path_13" data-name="Path 13" d="M501.242,302.072l-64.276,61.072H366.014v-9.2l61.1-17.738,52.263-64.54S503.107,286.331,501.242,302.072Z" transform="translate(-52.043 -143.051)" opacity="0.05"/>
    <path id="Path_14" data-name="Path 14" d="M501.242,300.072l-64.276,61.072H366.014v-9.2l61.1-17.738,52.263-64.54S503.107,284.331,501.242,300.072Z" transform="translate(-52.043 -142.365)" fill="#11cdef"/>
    <path id="Path_15" data-name="Path 15" d="M598.549,394.908s-34.162,2.628-24.964,9.2h24.964Z" transform="translate(-284.531 -185.327)" fill="#fda57d"/>
    <path id="Path_16" data-name="Path 16" d="M656.448,270.632s-8.541-25.622-14.453-18.395,3.285,22.337,3.285,22.337Z" transform="translate(-387.086 -135.945)" fill="#fda57d"/>
    <path id="Path_17" data-name="Path 17" d="M319.323,386.016v3.066l-105.114.219v-3.285Z" transform="translate(131.29 -132.418)" opacity="0.05"/>
    <path id="Path_18" data-name="Path 18" d="M593.423,524.455,522.716,530.9,518.88,675.28l-25.313-8.241s-37.858-163.582-1.758-177.37,75.122-31.945,98.421-17.148S593.423,524.455,593.423,524.455Z" transform="translate(-224.533 -210.059)" fill="#172b4d"/>
    <path id="Path_19" data-name="Path 19" d="M539.028,486.908s-38.761,19.709-44.017,42.046" transform="translate(-174.445 -216.886)" opacity="0.1"/>
    <path id="Path_20" data-name="Path 20" d="M528.876,526.293l-55.184,44.673,61.754,99.2-25.622,7.227S402.74,585.419,425.077,553.885s44.673-68.324,72.266-68.981S528.876,526.293,528.876,526.293Z" transform="translate(-122.915 -216.196)" fill="#172b4d"/>
    <path id="Path_21" data-name="Path 21" d="M431.29,251.016l-13.8,23.651-3.285-6.57Z" transform="translate(-112.022 -86.108)" opacity="0.05"/>
    <path id="Path_22" data-name="Path 22" d="M451.105,766.908s20.366,15.767,4.6,21.023-47.958,9.2-47.958,9.2-5.256-9.2,1.971-13.139,17.081-1.971,17.081-1.971l-1.314-7.884Z" transform="translate(-38.589 -312.937)" fill="#333"/>
    <path id="Path_23" data-name="Path 23" d="M651.858,779.064S660.8,803.874,644.643,800s-45.567-17.558-45.567-17.558.4-10.585,8.622-10.109,15.539,7.361,15.539,7.361l3.54-8.781Z" transform="translate(-358.075 -314.309)" fill="#333"/>
    <rect id="Rectangle_10" data-name="Rectangle 10" width="26.278" height="39.418" rx="13.139" transform="translate(384.925 96.584)" fill="#fda57d"/>
    <path id="Path_24" data-name="Path 24" d="M437.151,224.908a13.139,13.139,0,0,1,13.139,13.139v4.464a42.049,42.049,0,0,1-26.279,0v-4.464a13.139,13.139,0,0,1,13.139-13.139Z" transform="translate(-39.087 -127.01)" opacity="0.05"/>
    <circle id="Ellipse_4" data-name="Ellipse 4" cx="42.046" cy="42.046" r="42.046" transform="translate(356.013 32.202)" fill="#fda57d"/>
    <path id="Path_25" data-name="Path 25" d="M457.672,161.615s-10.511,2.709-16.424-9.238-10.511-18.463-34.819-11.4-29.2,7.921-30.366,1.245c-.8-4.562,7.845-15.642,13.4-22.2a15.554,15.554,0,0,1,11.857-5.109h27.447l16.424,7.6,12.482,10.861,2.628,14.662Z" transform="translate(-17.569 -89.276)" opacity="0.05"/>
    <path id="Path_26" data-name="Path 26" d="M457.672,159.615s-10.511,2.709-16.424-9.238-10.511-18.463-34.819-11.4-29.2,7.921-30.366,1.245c-.8-4.562,7.845-15.642,13.4-22.2a15.554,15.554,0,0,1,11.857-5.109h27.447l16.424,7.6,12.482,10.861,2.628,14.662Z" transform="translate(-17.569 -88.59)"/>
    <ellipse id="Ellipse_5" data-name="Ellipse 5" cx="4.27" cy="8.541" rx="4.27" ry="8.541" transform="translate(431.554 62.422)" fill="#fda57d"/>
    <path id="Path_27" data-name="Path 27" d="M457.967,127.726c.974-5.5,1.932-11.275.158-16.571a17.091,17.091,0,0,0-11-10.724c-3.313-1.018-6.883-1-10.175-2.081-4.633-1.526-8.265-5.067-12.29-7.823a40.507,40.507,0,0,0-11.619-5.483c-3.721-1.075-8.1-1.489-11.132.92-2.552,2.028-3.438,5.5-5.547,7.99-2.454,2.893-6.267,4.147-9.6,5.967A29.264,29.264,0,0,0,371.916,122.8c-.115,1.41,0,3.086,1.193,3.852a4.259,4.259,0,0,0,2.4.437c16.8-.24,33.629-.481,50.364-2.024a120.828,120.828,0,0,1,15.636-.888,51.148,51.148,0,0,1,23.023,6.5" transform="translate(-19.083 -78.739)"/>
    <rect id="Rectangle_11" data-name="Rectangle 11" width="101.228" height="43.076" rx="21.538" transform="translate(490.038 423.916)" fill="#172b4d"/>
    <path id="Path_28" data-name="Path 28" d="M725.182,486.046a.986.986,0,1,1,.952-.985A.986.986,0,0,1,725.182,486.046Z" transform="translate(-512.08 -215.915)" fill="url(#linear-gradient-3)"/>
    <line id="Line_6" data-name="Line 6" x1="68.324" y2="243.136" transform="translate(0.277 226.005)" fill="none" stroke="#e0e0e0" stroke-miterlimit="10" stroke-width="8"/>
    <rect id="Rectangle_12" data-name="Rectangle 12" width="368.954" height="14.378" transform="translate(0 218.885)" fill="#e0e0e0"/>
    <rect id="Rectangle_13" data-name="Rectangle 13" width="60.44" height="8.541" rx="4.27" transform="translate(217.469 215.494)" fill="#535461"/>
    <g id="Group_3" data-name="Group 3" transform="translate(68.377 120.275)" opacity="0.7">
      <rect id="Rectangle_14" data-name="Rectangle 14" width="150.22" height="103.866" rx="28.22" fill="url(#linear-gradient)"/>
    </g>
    <rect id="Rectangle_15" data-name="Rectangle 15" width="142.304" height="101.95" rx="26.835" transform="translate(96.188 122.191)" fill="#3e3f49"/>
    <rect id="Rectangle_16" data-name="Rectangle 16" width="142.304" height="101.95" rx="26.835" transform="translate(71.245 122.191)" fill="#535461"/>
    <circle id="Ellipse_6" data-name="Ellipse 6" cx="4.599" cy="4.599" r="4.599" transform="translate(154.11 167.864)" fill="#e0e0e0"/>
  </g>
</svg>
