<svg xmlns="http://www.w3.org/2000/svg" width="30.123" height="30.123" viewBox="0 0 30.123 30.123">
  <g id="Icon_feather-instagram" data-name="Icon feather-instagram" transform="translate(1.5 1.5)">
    <path id="Path_31" data-name="Path 31" d="M9.781,3H23.343a6.781,6.781,0,0,1,6.781,6.781V23.343a6.781,6.781,0,0,1-6.781,6.781H9.781A6.781,6.781,0,0,1,3,23.343V9.781A6.781,6.781,0,0,1,9.781,3Z" transform="translate(-3 -3)" fill="none" stroke="#2dce89" stroke-linecap="round" stroke-linejoin="round" stroke-width="3"/>
    <path id="Path_32" data-name="Path 32" d="M22.856,16.564a5.425,5.425,0,1,1-4.57-4.57,5.425,5.425,0,0,1,4.57,4.57Z" transform="translate(-3.869 -3.857)" fill="none" stroke="#2dce89" stroke-linecap="round" stroke-linejoin="round" stroke-width="3"/>
    <path id="Path_33" data-name="Path 33" d="M26.25,9.75h0" transform="translate(-5.229 -3.647)" fill="none" stroke="#2dce89" stroke-linecap="round" stroke-linejoin="round" stroke-width="3"/>
  </g>
</svg>
