<svg xmlns="http://www.w3.org/2000/svg" width="30.442" height="30.442" viewBox="0 0 30.442 30.442">
  <path id="Icon_awesome-linkedin" data-name="Icon awesome-linkedin" d="M28.267,2.25H2.168A2.184,2.184,0,0,0,0,4.445V30.5a2.184,2.184,0,0,0,2.168,2.195h26.1A2.19,2.19,0,0,0,30.442,30.5V4.445A2.19,2.19,0,0,0,28.267,2.25ZM9.2,28.343H4.689V13.815H9.207V28.343ZM6.944,11.831A2.616,2.616,0,1,1,9.561,9.215a2.617,2.617,0,0,1-2.616,2.616ZM26.113,28.343H21.6V21.276c0-1.685-.034-3.853-2.344-3.853-2.351,0-2.711,1.835-2.711,3.73v7.189H12.034V13.815h4.328V15.8h.061A4.752,4.752,0,0,1,20.7,13.455c4.566,0,5.416,3.01,5.416,6.924Z" transform="translate(0 -2.25)" fill="#2dce89"/>
</svg>
