<svg xmlns="http://www.w3.org/2000/svg" width="29.142" height="28.413" viewBox="0 0 29.142 28.413">
  <path id="Icon_awesome-github" data-name="Icon awesome-github" d="M9.747,23.441c0,.118-.135.212-.306.212-.194.018-.329-.076-.329-.212,0-.118.135-.212.306-.212C9.594,23.212,9.747,23.306,9.747,23.441ZM7.92,23.177c-.041.118.076.253.253.288a.276.276,0,0,0,.364-.118c.035-.118-.076-.253-.253-.306A.3.3,0,0,0,7.92,23.177Zm2.6-.1c-.17.041-.288.153-.27.288.018.118.17.194.347.153s.288-.153.27-.27S10.687,23.059,10.517,23.077ZM14.383.562A14.088,14.088,0,0,0,0,14.9,14.73,14.73,0,0,0,9.959,28.952c.752.135,1.016-.329,1.016-.711,0-.364-.018-2.374-.018-3.607,0,0-4.113.881-4.976-1.751,0,0-.67-1.71-1.633-2.15,0,0-1.345-.922.094-.9A3.1,3.1,0,0,1,6.71,21.344a3.106,3.106,0,0,0,4.283,1.228,3.265,3.265,0,0,1,.94-1.98c-3.284-.364-6.6-.84-6.6-6.492a4.453,4.453,0,0,1,1.387-3.461,5.551,5.551,0,0,1,.153-3.989c1.228-.382,4.054,1.586,4.054,1.586a13.88,13.88,0,0,1,7.379,0s2.826-1.974,4.054-1.586a5.548,5.548,0,0,1,.153,3.989A4.567,4.567,0,0,1,24.03,14.1c0,5.67-3.461,6.122-6.745,6.492a3.475,3.475,0,0,1,1,2.726c0,1.98-.018,4.43-.018,4.912,0,.382.27.846,1.016.711A14.594,14.594,0,0,0,29.142,14.9C29.142,6.749,22.532.562,14.383.562ZM5.711,20.826c-.076.059-.059.194.041.306.094.094.229.135.306.059.076-.059.059-.194-.041-.306C5.922,20.791,5.787,20.75,5.711,20.826Zm-.635-.476c-.041.076.018.17.135.229a.175.175,0,0,0,.253-.041c.041-.076-.018-.17-.135-.229C5.211,20.274,5.117,20.292,5.076,20.351Zm1.9,2.092c-.094.076-.059.253.076.364.135.135.306.153.382.059.076-.076.041-.253-.076-.364C7.233,22.366,7.056,22.348,6.98,22.442Zm-.67-.864c-.094.059-.094.212,0,.347s.253.194.329.135a.268.268,0,0,0,0-.364C6.557,21.561,6.4,21.5,6.31,21.579Z" transform="translate(0 -0.563)" fill="#2dce89"/>
</svg>
