<svg xmlns="http://www.w3.org/2000/svg" width="43.517" height="43.517" viewBox="0 0 43.517 43.517"><path d="M0,2.25V44.767H42.517V2.25ZM23.138,35.41c0,4.138-2.43,6.026-5.969,6.026a6.207,6.207,0,0,1-6-3.654l3.255-1.965c.626,1.11,1.2,2.05,2.572,2.05,1.31,0,2.145-.512,2.145-2.515V21.772h4Zm9.452,6.026c-3.711,0-6.112-1.765-7.279-4.081l3.255-1.879a4.36,4.36,0,0,0,3.939,2.43c1.651,0,2.714-.826,2.714-1.974,0-1.367-1.082-1.851-2.914-2.657l-1-.427c-2.885-1.224-4.793-2.771-4.793-6.026,0-3,2.287-5.277,5.846-5.277a5.884,5.884,0,0,1,5.675,3.2l-3.113,1.993a2.717,2.717,0,0,0-2.572-1.708,1.734,1.734,0,0,0-1.908,1.708c0,1.2.74,1.68,2.458,2.43l1,.427c3.4,1.452,5.305,2.942,5.305,6.283,0,3.587-2.828,5.561-6.615,5.561Z" transform="translate(0.5 -1.75)" fill="#172b4d" stroke="#172b4d" stroke-width="1"/></svg>