<svg xmlns="http://www.w3.org/2000/svg" xmlns:xlink="http://www.w3.org/1999/xlink" viewBox="0 0 347.66 59.53"><defs><style>.cls-1{fill:#172b4d;}.cls-2{fill:url(#linear-gradient);}.cls-3{fill:url(#linear-gradient-2);}.cls-4{fill:url(#linear-gradient-3);}.cls-5{fill:url(#linear-gradient-4);}.cls-6{fill:none;}</style><linearGradient id="linear-gradient" x1="-173.1" y1="847.55" x2="-117.32" y2="839.13" gradientTransform="matrix(0.58, 0.58, -0.42, 0.81, 459.28, -556.47)" gradientUnits="userSpaceOnUse"><stop offset="0" stop-color="#002424" stop-opacity="0.6"/><stop offset="0.51" stop-color="#0bcfcf"/><stop offset="1" stop-color="#00d09c"/></linearGradient><linearGradient id="linear-gradient-2" x1="-10.13" y1="59.55" x2="-24.38" y2="45.3" gradientTransform="matrix(0.65, 0.58, -0.46, 0.81, 56.86, -7.78)" gradientUnits="userSpaceOnUse"><stop offset="0" stop-color="#0bcfcf"/><stop offset="1" stop-color="#10cfe8"/></linearGradient><linearGradient id="linear-gradient-3" x1="729.31" y1="-606.5" x2="785.09" y2="-614.92" gradientTransform="matrix(0.58, -0.58, -0.42, -0.81, -372.1, -10.95)" xlink:href="#linear-gradient"/><linearGradient id="linear-gradient-4" x1="1523.15" y1="-98.25" x2="1508.9" y2="-112.5" gradientTransform="matrix(0.65, -0.58, -0.46, -0.81, -705.51, 822.01)" xlink:href="#linear-gradient-2"/></defs><title>Asset 4</title><g id="Layer_2" data-name="Layer 2"><g id="Layer_1-2" data-name="Layer 1"><path class="cls-1" d="M59.53,48.76q5.18-11.42,7.53-17.49L76.78,7.45a5.64,5.64,0,0,1,2.47-2.79,7.36,7.36,0,0,1,3.77-1q5.18,0,6.8,4,.65,1.54,10.37,25.92a11.77,11.77,0,0,1,.65,1.38,11.77,11.77,0,0,0,.65,1.38q4.45,11.1,6.07,14.74a9.39,9.39,0,0,1,.89,3.48,4.15,4.15,0,0,1-1.82,3.24,6.85,6.85,0,0,1-4.41,1.46,5.18,5.18,0,0,1-5.26-3.48l-3.73-9.56q-1.54-.08-12.64-.08H73.05L69.57,55.4Q68,59.21,64.71,59.21a8.13,8.13,0,0,1-4.62-1.3,4.52,4.52,0,0,1-1.94-4A13.63,13.63,0,0,1,59.53,48.76Zm16.6-11.42q7.94,0,13.93-.16-.32-1-3.16-9.19L83.18,17.17Q82.37,19.68,76.13,37.34Z"/><path class="cls-1" d="M114.69,27.21a6.55,6.55,0,0,1,1.3-4.45q1.3-1.46,4.29-1.46,4.37,0,5,4l.16,2.19a9.42,9.42,0,0,1,4.41-4.66,13.79,13.79,0,0,1,6.68-1.74q6.88,0,10.61,4.21t3.73,12q0,1.62,0,4.62t0,5.51V54q0,5.1-5.91,5.1A5.88,5.88,0,0,1,141.09,58a4.25,4.25,0,0,1-1.46-3.52q0-1.94.08-6.88t.08-7.29a16.33,16.33,0,0,0-1.26-7.09q-1.26-2.55-4.74-2.63-4.86-.08-6.52,3t-1.66,9.31l.08,11.91a3.79,3.79,0,0,1-1.58,3.4,6.78,6.78,0,0,1-3.85,1.05q-5.67,0-5.67-4.62,0-2,.16-9.07T114.85,33Z"/><path class="cls-1" d="M197.55,22.76V40.17q0,1.38,0,3.24t.08,5.18q0,3.32,0,6.07,0,4.62-5.35,4.62-3.89,0-4.7-3.16l-.4-2.75a12.3,12.3,0,0,1-11.1,6.07q-8.26,0-13.08-5.35a18.45,18.45,0,0,1-4.82-12.8A20.11,20.11,0,0,1,163.69,27a18.05,18.05,0,0,1,13.77-5.79q6,0,9.15,4.21l-.08-19.68Q186.53,0,192,0a6.91,6.91,0,0,1,4.37,1.21,4.57,4.57,0,0,1,1.46,4ZM171.83,47.34a8,8,0,0,0,6,2.63,8.79,8.79,0,0,0,6.48-2.59,9.31,9.31,0,0,0,2.59-6.88,9.91,9.91,0,0,0-2.47-7.13,8.11,8.11,0,0,0-6.11-2.59,8.4,8.4,0,0,0-6.44,2.75,10.41,10.41,0,0,0-2.55,7.37A9.06,9.06,0,0,0,171.83,47.34Z"/><path class="cls-1" d="M213,21.38a3.79,3.79,0,0,1,4.13,3.16l.49,3.24a11.17,11.17,0,0,1,4.17-4.9,10.46,10.46,0,0,1,5.79-1.82q4.94,0,4.94,5.1a6.29,6.29,0,0,1-1.13,3.77,3.75,3.75,0,0,1-3.24,1.58H227a7.65,7.65,0,0,0-6.24,2.88q-2.35,2.88-2.35,8.63,0,.65.12,5.75a50.53,50.53,0,0,1,0,6q-.08,4.54-5.59,4.54a6,6,0,0,1-4-1.21q-1.38-1.22-1.38-4.29t.12-9.92q.12-6.76.12-9.52,0-1.3,0-4t0-4Q207.6,21.38,213,21.38Z"/><path class="cls-1" d="M249,48A8.42,8.42,0,0,0,254.49,50a12.89,12.89,0,0,0,6.8-1.86A8,8,0,0,1,264.94,47a4.06,4.06,0,0,1,3.2,1.58,5.53,5.53,0,0,1,1.34,3.69,4.85,4.85,0,0,1-2.75,4.29q-4.78,3-13,3a18.08,18.08,0,0,1-13.12-5.31,17.57,17.57,0,0,1-5.51-12.84,20.3,20.3,0,0,1,5.51-14.5,17.88,17.88,0,0,1,13.53-5.83,16.78,16.78,0,0,1,12,4.58,14.1,14.1,0,0,1,4.82,10.49q0,3.64-1.26,5.18t-5.14,1.62q-5.1.16-18.22.24A7.09,7.09,0,0,0,249,48Zm-.24-16.24a7,7,0,0,0-2.47,4.66q6.72,0,13.2-.32,1,0,1-.49a5.32,5.32,0,0,0-1.86-4.21,6.67,6.67,0,0,0-4.54-1.62A7.71,7.71,0,0,0,248.78,31.79Z"/><path class="cls-1" d="M279.44,11a6.49,6.49,0,0,1-1.38-5.22,5.85,5.85,0,0,1,2.51-3.89A7.51,7.51,0,0,1,284.87.49a6.32,6.32,0,0,1,4.86,1.82,6.44,6.44,0,0,1,1.7,4.58,5.55,5.55,0,0,1-2,4.66,8.18,8.18,0,0,1-5.18,1.58A5.89,5.89,0,0,1,279.44,11Zm1.26,11.42a6,6,0,0,1,3.69-1.17q5.67,0,5.75,5.1.08,3.08,0,9.11t0,9l.08,9.8A4.54,4.54,0,0,1,288.63,58a6.24,6.24,0,0,1-4.09,1.3,6.7,6.7,0,0,1-4-1.09A3.76,3.76,0,0,1,279,54.91V26A4.39,4.39,0,0,1,280.7,22.39Z"/><rect class="cls-2" x="-1.4" y="38.31" width="44.75" height="12.47" rx="6.23" ry="6.23" transform="translate(25.08 -4.52) rotate(30)"/><rect class="cls-3" x="-3.47" y="18.55" width="49.6" height="12.47" rx="6.23" ry="6.23" transform="matrix(0.81, -0.58, 0.58, 0.81, -10.45, 17.06)"/><rect class="cls-4" x="304.31" y="38.31" width="44.75" height="12.47" rx="6.23" ry="6.23" transform="translate(631.87 -80.22) rotate(150)"/><rect class="cls-5" x="301.53" y="18.55" width="49.6" height="12.47" rx="6.23" ry="6.23" transform="translate(577.17 234.98) rotate(-144.38)"/><line class="cls-6" x1="40.53" y1="55.41" x2="58.53" y2="55.41"/><line class="cls-6" x1="290.53" y1="55.41" x2="307.53" y2="55.41"/></g></g></svg>